<svg id="svg" version="1.1" width="400" height="438" viewBox="0 0 400 438" xmlns="http://www.w3.org/2000/svg" xmlns:xlink="http://www.w3.org/1999/xlink" ><g id="svgg"><path id="path0" d="M94.667 14.489 C 94.667 14.574,103.497 31.637,114.289 52.405 C 153.432 127.734,179.277 177.480,233.833 282.500 C 264.405 341.350,293.160 396.700,297.733 405.500 C 302.307 414.300,306.167 421.622,306.312 421.771 C 306.456 421.920,323.696 421.934,344.621 421.802 L 382.667 421.562 382.667 379.281 L 382.667 337.000 369.333 337.000 L 356.000 337.000 356.000 218.000 L 356.000 99.000 369.333 99.000 L 382.667 99.000 382.667 56.667 L 382.667 14.333 320.295 14.333 L 257.924 14.333 258.131 122.083 C 258.245 181.346,258.418 233.433,258.515 237.833 C 258.664 244.572,258.621 245.745,258.243 245.274 C 257.996 244.966,232.078 192.884,200.647 129.538 L 143.500 14.361 119.083 14.347 C 105.654 14.340,94.667 14.403,94.667 14.489 " stroke="none" fill="#000000" fill-rule="evenodd"></path><path id="path1" d="M257.810 21.833 C 257.810 26.050,257.858 27.729,257.916 25.565 C 257.974 23.400,257.974 19.950,257.915 17.898 C 257.857 15.846,257.809 17.617,257.810 21.833 M258.154 133.667 C 258.154 142.375,258.197 145.938,258.250 141.583 C 258.302 137.229,258.302 130.104,258.250 125.750 C 258.197 121.396,258.154 124.958,258.154 133.667 M202.833 223.333 C 203.118 223.883,203.425 224.333,203.517 224.333 C 203.609 224.333,203.451 223.883,203.167 223.333 C 202.882 222.783,202.575 222.333,202.483 222.333 C 202.391 222.333,202.549 222.783,202.833 223.333 M207.167 231.667 C 207.451 232.217,207.759 232.667,207.850 232.667 C 207.942 232.667,207.784 232.217,207.500 231.667 C 207.216 231.117,206.908 230.667,206.816 230.667 C 206.725 230.667,206.882 231.117,207.167 231.667 M258.461 241.833 C 258.461 244.033,258.515 244.890,258.580 243.737 C 258.646 242.584,258.645 240.784,258.579 239.737 C 258.513 238.690,258.460 239.633,258.461 241.833 M211.833 240.667 C 212.118 241.217,212.425 241.667,212.517 241.667 C 212.609 241.667,212.451 241.217,212.167 240.667 C 211.882 240.117,211.575 239.667,211.483 239.667 C 211.391 239.667,211.549 240.117,211.833 240.667 M216.167 249.000 C 216.451 249.550,216.759 250.000,216.850 250.000 C 216.942 250.000,216.784 249.550,216.500 249.000 C 216.216 248.450,215.908 248.000,215.816 248.000 C 215.725 248.000,215.882 248.450,216.167 249.000 M220.500 257.333 C 220.784 257.883,221.092 258.333,221.184 258.333 C 221.275 258.333,221.118 257.883,220.833 257.333 C 220.549 256.783,220.241 256.333,220.150 256.333 C 220.058 256.333,220.216 256.783,220.500 257.333 M225.167 266.333 C 225.451 266.883,225.759 267.333,225.850 267.333 C 225.942 267.333,225.784 266.883,225.500 266.333 C 225.216 265.783,224.908 265.333,224.816 265.333 C 224.725 265.333,224.882 265.783,225.167 266.333 M229.500 274.667 C 229.784 275.217,230.092 275.667,230.184 275.667 C 230.275 275.667,230.118 275.217,229.833 274.667 C 229.549 274.117,229.241 273.667,229.150 273.667 C 229.058 273.667,229.216 274.117,229.500 274.667 M238.500 292.000 C 238.784 292.550,239.092 293.000,239.184 293.000 C 239.275 293.000,239.118 292.550,238.833 292.000 C 238.549 291.450,238.241 291.000,238.150 291.000 C 238.058 291.000,238.216 291.450,238.500 292.000 M242.833 300.333 C 243.118 300.883,243.425 301.333,243.517 301.333 C 243.609 301.333,243.451 300.883,243.167 300.333 C 242.882 299.783,242.575 299.333,242.483 299.333 C 242.391 299.333,242.549 299.783,242.833 300.333 M247.167 308.667 C 247.451 309.217,247.759 309.667,247.850 309.667 C 247.942 309.667,247.784 309.217,247.500 308.667 C 247.216 308.117,246.908 307.667,246.816 307.667 C 246.725 307.667,246.882 308.117,247.167 308.667 M251.833 317.667 C 252.118 318.217,252.425 318.667,252.517 318.667 C 252.609 318.667,252.451 318.217,252.167 317.667 C 251.882 317.117,251.575 316.667,251.483 316.667 C 251.391 316.667,251.549 317.117,251.833 317.667 M256.167 326.000 C 256.451 326.550,256.759 327.000,256.850 327.000 C 256.942 327.000,256.784 326.550,256.500 326.000 C 256.216 325.450,255.908 325.000,255.816 325.000 C 255.725 325.000,255.882 325.450,256.167 326.000 M265.167 343.333 C 265.451 343.883,265.759 344.333,265.850 344.333 C 265.942 344.333,265.784 343.883,265.500 343.333 C 265.216 342.783,264.908 342.333,264.816 342.333 C 264.725 342.333,264.882 342.783,265.167 343.333 M269.500 351.667 C 269.784 352.217,270.092 352.667,270.184 352.667 C 270.275 352.667,270.118 352.217,269.833 351.667 C 269.549 351.117,269.241 350.667,269.150 350.667 C 269.058 350.667,269.216 351.117,269.500 351.667 M273.833 360.000 C 274.118 360.550,274.425 361.000,274.517 361.000 C 274.609 361.000,274.451 360.550,274.167 360.000 C 273.882 359.450,273.575 359.000,273.483 359.000 C 273.391 359.000,273.549 359.450,273.833 360.000 M278.500 369.000 C 278.784 369.550,279.092 370.000,279.184 370.000 C 279.275 370.000,279.118 369.550,278.833 369.000 C 278.549 368.450,278.241 368.000,278.150 368.000 C 278.058 368.000,278.216 368.450,278.500 369.000 M282.833 377.333 C 283.118 377.883,283.425 378.333,283.517 378.333 C 283.609 378.333,283.451 377.883,283.167 377.333 C 282.882 376.783,282.575 376.333,282.483 376.333 C 282.391 376.333,282.549 376.783,282.833 377.333 M348.583 421.917 C 354.863 421.967,365.137 421.967,371.417 421.917 C 377.696 421.866,372.558 421.824,360.000 421.824 C 347.442 421.824,342.304 421.866,348.583 421.917 " stroke="none" fill="#333333" fill-rule="evenodd"></path><path id="path2" d="M30.417 14.250 C 39.537 14.299,54.462 14.299,63.583 14.250 C 72.704 14.201,65.242 14.160,47.000 14.160 C 28.758 14.160,21.296 14.201,30.417 14.250 M106.583 14.250 C 113.412 14.300,124.587 14.300,131.417 14.250 C 138.246 14.200,132.658 14.158,119.000 14.158 C 105.342 14.158,99.754 14.200,106.583 14.250 M320.082 14.250 L 382.664 14.335 382.751 56.668 L 382.837 99.000 382.835 56.583 L 382.833 14.167 320.167 14.165 L 257.500 14.164 320.082 14.250 M257.825 53.333 C 257.825 66.625,257.866 72.063,257.917 65.417 C 257.967 58.771,257.967 47.896,257.917 41.250 C 257.866 34.604,257.825 40.042,257.825 53.333 M356.165 218.000 C 356.165 283.542,356.203 310.354,356.250 277.583 C 356.297 244.813,356.297 191.188,356.250 158.417 C 356.203 125.646,356.165 152.458,356.165 218.000 M258.158 173.333 C 258.158 186.625,258.199 192.063,258.250 185.417 C 258.300 178.771,258.300 167.896,258.250 161.250 C 258.199 154.604,258.158 160.042,258.158 173.333 M138.333 307.167 C 138.333 370.386,138.408 422.037,138.499 421.945 C 138.718 421.727,138.720 192.609,138.502 192.391 C 138.409 192.298,138.333 243.947,138.333 307.167 M382.828 379.500 C 382.828 402.967,382.868 412.518,382.917 400.724 C 382.965 388.931,382.965 369.731,382.917 358.057 C 382.868 346.384,382.828 356.033,382.828 379.500 " stroke="none" fill="#858585" fill-rule="evenodd"></path><path id="path3" d="M6.000 56.667 L 6.000 107.000 19.333 107.000 L 32.667 107.000 32.667 218.000 L 32.667 329.000 19.333 329.000 L 6.000 329.000 6.000 379.333 L 6.000 429.667 76.166 429.667 L 146.332 429.667 146.416 327.814 L 146.500 225.962 197.149 327.835 C 225.005 383.865,247.933 429.792,248.099 429.895 C 248.265 429.997,280.411 429.969,319.534 429.832 L 390.667 429.583 390.667 379.291 L 390.667 329.000 377.333 329.000 L 364.000 329.000 364.000 218.000 L 364.000 107.000 377.333 107.000 L 390.667 107.000 390.667 56.667 L 390.667 6.333 320.281 6.333 L 249.896 6.333 250.137 108.917 L 250.378 211.500 238.425 187.500 C 231.851 174.300,208.928 128.138,187.486 84.918 L 148.500 6.336 77.250 6.335 L 6.000 6.333 6.000 56.667 M200.830 129.514 C 232.348 193.018,258.182 244.929,258.240 244.872 C 258.297 244.814,258.193 198.357,258.010 141.634 C 257.826 84.910,257.673 32.987,257.671 26.249 L 257.667 13.998 320.250 14.082 L 382.833 14.167 382.918 56.583 L 383.003 99.000 369.668 99.000 L 356.333 99.000 356.333 218.000 L 356.333 337.000 369.667 337.000 L 383.000 337.000 383.000 379.500 L 383.000 422.000 317.887 422.000 L 252.774 422.000 195.803 307.450 L 138.833 192.900 138.750 307.450 L 138.666 422.000 76.333 422.000 L 14.000 422.000 14.000 379.500 L 14.000 337.000 27.333 337.000 L 40.667 337.000 40.667 218.000 L 40.667 99.000 27.333 99.000 L 14.000 99.000 14.000 56.512 L 14.000 14.023 78.762 14.037 L 143.524 14.052 200.830 129.514 " stroke="none" fill="#ffffff" fill-rule="evenodd"></path><path id="path4" d="M14.000 56.667 L 14.000 99.000 27.333 99.000 L 40.667 99.000 40.667 218.000 L 40.667 337.000 27.332 337.000 L 13.997 337.000 14.082 379.417 L 14.167 421.833 76.250 421.918 L 138.333 422.002 138.333 307.148 C 138.333 243.978,138.446 192.365,138.583 192.451 C 138.721 192.537,164.483 244.217,195.833 307.296 L 252.833 421.984 279.417 421.992 C 294.037 421.996,306.000 421.957,306.000 421.905 C 306.000 421.852,279.938 371.634,248.083 310.308 C 216.229 248.983,168.642 157.307,142.333 106.584 L 94.500 14.360 54.250 14.347 L 14.000 14.333 14.000 56.667 " stroke="none" fill="#cc0000" fill-rule="evenodd"></path></g></svg>